<svg xmlns="http://www.w3.org/2000/svg" xmlns:xlink="http://www.w3.org/1999/xlink" viewBox="0 0 249.16 72.86"><defs><style>.cls-1{fill:url(#linear-gradient);}.cls-2{fill:url(#linear-gradient-2);}.cls-3{fill:#005baa;}</style><linearGradient id="linear-gradient" x1="23.36" y1="40.21" x2="54.96" y2="40.21" gradientUnits="userSpaceOnUse"><stop offset="0" stop-color="#004282"></stop><stop offset="0.34" stop-color="#004f97"></stop><stop offset="0.7" stop-color="#0058a5"></stop><stop offset="1" stop-color="#005baa"></stop></linearGradient><linearGradient id="linear-gradient-2" x1="23.89" y1="16.68" x2="44.27" y2="30.95" gradientUnits="userSpaceOnUse"><stop offset="0" stop-color="#ed1c24"></stop><stop offset="0.4" stop-color="#eb1c24"></stop><stop offset="0.58" stop-color="#e41c26"></stop><stop offset="0.71" stop-color="#d71d28"></stop><stop offset="0.82" stop-color="#c61e2c"></stop><stop offset="0.85" stop-color="#be1e2d"></stop><stop offset="0.87" stop-color="#b71c2a"></stop><stop offset="0.9" stop-color="#a51722"></stop><stop offset="0.94" stop-color="#870f16"></stop><stop offset="0.98" stop-color="#5d0304"></stop><stop offset="0.99" stop-color="#530000"></stop></linearGradient></defs><title>YTY19</title><g id="Layer_2" data-name="Layer 2"><g id="Layer_1-2" data-name="Layer 1"><path class="cls-1" d="M54.94,36.83,47.43,28l-1.59-1.86-1.72-2c0,.26.05.51.07.77s0,.49,0,.74h0a1.21,1.21,0,0,1,0,.19v.2a15.63,15.63,0,0,1-4.3,10.8h0l0,0L23.36,56.27h13.3a4.43,4.43,0,0,0,2.91-1.39c0-.06.11-.11.16-.16l3.42-4c.07-.07.12-.15.18-.22l4.1-4.8,7.51-8.8,0,0Z"></path><path class="cls-2" d="M23.36,17.43l16.56,19.4v0a15.63,15.63,0,0,0,4.3-10.8c0-.13,0-.26,0-.39l0-.74c0-.26,0-.51-.07-.77l-1-1.12h0l-3.42-4h0a4.53,4.53,0,0,0-3.43-1.58H23.36Z"></path><path class="cls-3" d="M36,.85a36,36,0,1,0,36,36A36,36,0,0,0,36,.85Zm0,64.28A28.28,28.28,0,1,1,64.29,36.85,28.29,28.29,0,0,1,36,65.13Z"></path><path class="cls-3" d="M244.52.3C242.58.13,240.73,0,239,0c-1.42,0-3,.09-4.69.26s-3.21.35-4.49.55l-12.4,28L205.41.65h-3.95l-7.54,15.73h0l15,30.76V72.86h17.85V47.14q2.63-5.45,5.5-11.34T238,24q2.88-5.91,5.7-11.8T249.16.85C248,.65,246.47.46,244.52.3Z"></path><path class="cls-3" d="M133.18.81l-12.41,28-11.9-28C107.32.54,105.71.34,104,.2s-3.4-.2-5.15-.2c-1.14,0-2.62.09-4.43.25s-3.36.36-4.64.56L112.3,47.1V72.82h17.85V47.1q2.63-5.44,5.5-11.35T141.39,24q2.88-5.89,5.7-11.8T152.54.81C151.4.61,134.45.61,133.18.81Z"></path><path class="cls-3" d="M198.62.65H155.49l-.7,1.44q-2.61,5.45-5.44,11.34l-1.41,2.95h14.93V72.86h17.85V16.38h10.72L199,.65Z"></path></g></g></svg>